<?xml version="1.0" encoding="utf-8"?>
<!-- Generator: Adobe Illustrator 19.2.0, SVG Export Plug-In . SVG Version: 6.00 Build 0)  -->
<svg version="1.1" id="Capa_1" xmlns="http://www.w3.org/2000/svg" xmlns:xlink="http://www.w3.org/1999/xlink" x="0px" y="0px"
	 viewBox="0 0 455.7 455.7" style="enable-background:new 0 0 455.7 455.7;" xml:space="preserve">
<style type="text/css">
	.st0{fill:#1BD741;}
	.st1{fill:#FFFFFF;}
</style>
<g>
	<circle class="st0" cx="227.9" cy="227.9" r="227.9"/>
	<g>
		<path class="st1" d="M96.4,362.9l18.9-67.1c-12.2-20.6-18.5-44.1-18.5-68.2c0-74.6,61-135.2,135.7-134.7
			c73.3,0.6,133.1,60.3,133.6,133.6c0.6,74.7-60.1,135.7-134.7,135.7c-23.1,0-45.8-5.9-65.8-17.2L96.4,362.9z M169.1,320.6l4.1,2.5
			c17.5,10.7,37.6,16.3,58.2,16.3c61.9,0,112.3-50.7,111.9-112.7c-0.5-60.8-50.2-110.5-111-111c-62-0.5-112.7,49.8-112.7,111.9
			c0,21.5,6.1,42.4,17.7,60.3l2.8,4.3l-10.9,38.7L169.1,320.6z"/>
		<path class="st1" d="M193.6,164.9l-8.7-0.5c-2.7-0.2-5.4,0.8-7.5,2.5c-4.2,3.6-11,10.8-13.1,20.1c-3.1,13.8,1.7,30.7,14.1,47.6
			c12.4,16.9,35.5,44,76.4,55.6c13.2,3.7,23.5,1.2,31.6-3.9c6.3-4.1,10.7-10.6,12.3-17.9l1.4-6.5c0.4-2-0.6-4.1-2.5-5.1l-29.5-13.5
			c-1.9-0.8-4.2-0.3-5.5,1.4l-11.6,15.1c-0.8,1.1-2.4,1.6-3.7,1.1c-8-2.8-34.5-14-49.2-42.1c-0.6-1.2-0.5-2.7,0.4-3.7l11.1-12.8
			c1.1-1.3,1.4-3.1,0.8-4.7l-12.7-29.8C196.8,166,195.3,164.9,193.6,164.9z"/>
	</g>
</g>
</svg>
