<?xml version="1.0" encoding="utf-8"?>
<!-- Generator: Adobe Illustrator 19.2.0, SVG Export Plug-In . SVG Version: 6.00 Build 0)  -->
<svg version="1.1" id="Слой_1" xmlns="http://www.w3.org/2000/svg" xmlns:xlink="http://www.w3.org/1999/xlink" x="0px" y="0px"
	 viewBox="0 0 733.3 733.3" style="enable-background:new 0 0 733.3 733.3;" xml:space="preserve">
<path d="M366.7,0C164.2,0,0,164.2,0,366.7s164.2,366.7,366.7,366.7s366.7-164.2,366.7-366.7C733.1,164.3,569.1,0.2,366.7,0z
	 M366.7,666.7c-62.1-1.4-122.4-20.8-173.6-55.8C279.1,515,426.6,507,522.5,593.1c6.2,5.6,12.2,11.5,17.8,17.8
	C489.5,646.7,428.9,666.2,366.7,666.7z M589.8,566.5c-110.2-123.2-299.4-133.8-422.7-23.6c-8.3,7.4-16.2,15.3-23.6,23.6
	C32.8,443.2,42.9,253.6,166.1,142.8s312.9-100.6,423.7,22.6C692.3,279.5,692.3,452.4,589.8,566.5z M366.7,166.7
	c-73.6,0-133.3,59.7-133.3,133.3S293,433.3,366.7,433.3S500,373.6,500,300S440.3,166.7,366.7,166.7z M366.7,366.7
	c-36.8,0-66.7-29.8-66.7-66.7s29.8-66.7,66.7-66.7s66.7,29.8,66.7,66.7S403.5,366.7,366.7,366.7z"/>
</svg>
