<?xml version="1.0" encoding="utf-8"?>
<!-- Generator: Adobe Illustrator 19.2.0, SVG Export Plug-In . SVG Version: 6.00 Build 0)  -->
<svg version="1.1" id="Слой_1" xmlns="http://www.w3.org/2000/svg" xmlns:xlink="http://www.w3.org/1999/xlink" x="0px" y="0px"
	 viewBox="0 0 28 25.4" style="enable-background:new 0 0 28 25.4;" xml:space="preserve">
<title>login</title>
<path fill="#141516" d="M15.3,25.4h7.6c1.4,0,2.7-0.5,3.6-1.5c0.9-0.9,1.5-2.2,1.5-3.6V5.1c0-1.4-0.6-2.7-1.5-3.6S24.3,0,22.9,0h-7.6v3.2h7.6
	c1.1,0,1.9,0.8,1.9,1.9v15.3c0,1.1-0.8,1.9-1.9,1.9h-7.6V25.4L15.3,25.4z M0,9.7v6.1c0,0.7,0.6,1.3,1.3,1.3h7.1v4.8
	c0,0.4,0.2,0.8,0.6,1c0.2,0,0.4,0,0.4,0c0.3,0,0.5-0.1,0.7-0.3l9.2-9.2c0.4-0.4,0.3-1.1,0-1.4l-9.2-9.1C9.8,2.5,9.4,2.5,9,2.6
	C8.6,2.8,8.4,3.1,8.4,3.6v4.8H1.3C0.6,8.4,0,9,0,9.7L0,9.7z"/>
</svg>
