<?xml version="1.0" encoding="utf-8"?>
<!-- Generator: Adobe Illustrator 19.2.0, SVG Export Plug-In . SVG Version: 6.00 Build 0)  -->
<svg version="1.1" id="Слой_1" xmlns="http://www.w3.org/2000/svg" xmlns:xlink="http://www.w3.org/1999/xlink" x="0px" y="0px"
	 viewBox="0 0 42 35" style="enable-background:new 0 0 42 35;" xml:space="preserve">
<style type="text/css">
	.st0{fill:#FFFFFF;}
</style>
<path class="st0" d="M38.4,0.3c0,0,3.9-1.5,3.6,2.2C41.9,4,40.9,9.3,40.1,15l-2.6,17c0,0-0.2,2.5-2.2,2.9c-1.9,0.4-4.9-1.5-5.4-1.9
	c-0.4-0.3-8.1-5.2-10.8-7.6c-0.8-0.6-1.6-1.9,0.1-3.5l11.3-10.8c1.3-1.3,2.6-4.3-2.8-0.6L12.7,20.8c0,0-1.7,1.1-5,0.1l-7-2.2
	c0,0-2.6-1.6,1.8-3.2C13.4,10.4,26.7,5.2,38.4,0.3z"/>
</svg>
